<svg version="1.2" xmlns="http://www.w3.org/2000/svg" viewBox="0 0 1433 204" width="1433" height="204"><defs><clipPath clipPathUnits="userSpaceOnUse" id="cp1"><path d="m6.77 7.54h47.97v47.98h-47.97z"/></clipPath><clipPath clipPathUnits="userSpaceOnUse" id="cp2"><path d="m6.77 79.5h119.93v47.98h-119.93z"/></clipPath><clipPath clipPathUnits="userSpaceOnUse" id="cp3"><path d="m78.73 7.54h47.97v47.98h-47.97z"/></clipPath><clipPath clipPathUnits="userSpaceOnUse" id="cp4"><path d="m6.77 151.46h191.89v47.97h-191.89z"/></clipPath><clipPath clipPathUnits="userSpaceOnUse" id="cp5"><path d="m150.69 7.54h47.97v119.94h-47.97z"/></clipPath><clipPath clipPathUnits="userSpaceOnUse" id="cp6"><path d="m294.61 23.53h160.39v160.47h-160.39z"/></clipPath><clipPath clipPathUnits="userSpaceOnUse" id="cp7"><path d="m294.61 63.51v79.96c0 10.6 4.21 20.77 11.71 28.27 7.49 7.5 17.66 11.71 28.27 11.71h119.93v-31.99h-127.93v-95.94h127.93v-31.99h-119.93c-10.61 0-20.77 4.22-28.27 11.71-7.51 7.49-11.71 17.66-11.71 28.27z"/></clipPath><clipPath clipPathUnits="userSpaceOnUse" id="cp8"><path d="m490.5 63.47h92.24v120.53h-92.24z"/></clipPath><clipPath clipPathUnits="userSpaceOnUse" id="cp9"><path d="m522.32 83.5h-3.83l-4.01-19.99h-23.98v119.93h31.98v-75.96c0-4.24 1.69-8.31 4.69-11.3 2.99-3 7.06-4.69 11.3-4.69h43.98v-27.98h-39.98c-2.64-0.04-5.26 0.44-7.72 1.44-2.46 0.98-4.68 2.45-6.56 4.32-1.88 1.85-3.37 4.07-4.37 6.52-1.01 2.44-1.52 5.07-1.5 7.71z"/></clipPath><clipPath clipPathUnits="userSpaceOnUse" id="cp10"><path d="m597.24 63.46h132.21v120.54h-132.21z"/></clipPath><clipPath clipPathUnits="userSpaceOnUse" id="cp11"><path d="m709.22 65.84c3.93 1.59 7.51 3.93 10.52 6.9 3 2.98 5.4 6.52 7.03 10.43 1.63 3.9 2.47 8.09 2.47 12.33v87.95h-23.99l-3.99-15.99h-4c0 4.24-1.69 8.31-4.69 11.31-3 2.99-7.06 4.68-11.3 4.68h-46.06c-4.83 0.21-9.67-0.56-14.21-2.25-4.54-1.68-8.7-4.25-12.23-7.57-3.54-3.31-6.39-7.29-8.36-11.72-1.98-4.43-3.05-9.2-3.17-14.05 0.21-9.29 4.09-18.11 10.79-24.56 6.69-6.44 15.66-9.97 24.95-9.82h63.97v-23.98h-83.96v-25.99h83.88c4.23-0.05 8.42 0.75 12.35 2.33zm-24.36 93.61c3.19 0 6.25-1.26 8.51-3.5 2.26-2.25 3.54-5.3 3.57-8.49v-12h-57.97c-3.18 0-6.22 1.27-8.47 3.52-2.26 2.24-3.52 5.3-3.52 8.48 0 3.16 1.26 6.2 3.49 8.45 2.23 2.25 5.26 3.52 8.42 3.55h45.98z"/></clipPath><clipPath clipPathUnits="userSpaceOnUse" id="cp12"><path d="m754.36 23.53h104.53v160.47h-104.53z"/></clipPath><clipPath clipPathUnits="userSpaceOnUse" id="cp13"><path d="m818.32 23.53h-31.98v39.98h-31.98v27.99h31.98v55.96c0.29 9.72 4.4 18.92 11.44 25.63 7.03 6.71 16.42 10.37 26.14 10.2h34.38v-27.83h-39.98v-63.96h39.97v-27.99h-39.97z"/></clipPath><clipPath clipPathUnits="userSpaceOnUse" id="cp14"><path d="m882.29 63.51h132.21v120.49h-132.21z"/></clipPath><clipPath clipPathUnits="userSpaceOnUse" id="cp15"><path d="m1002.5 75.22c7.5 7.5 11.71 17.67 11.71 28.27v31.98h-99.94v21.99h91.95v25.99h-83.96c-10.6 0-20.78-4.21-28.27-11.71-7.49-7.5-11.7-17.67-11.7-28.27v-39.98c0-10.61 4.2-20.78 11.7-28.27 7.5-7.5 17.67-11.71 28.27-11.71h51.97c10.6 0 20.78 4.2 28.27 11.71zm-16.2 38.26v-12.07c-0.02-3.16-1.3-6.2-3.54-8.43-2.25-2.23-5.28-3.48-8.45-3.48h-47.97c-3.18 0-6.23 1.27-8.48 3.51-2.25 2.25-3.52 5.3-3.52 8.48v11.99z"/></clipPath><clipPath clipPathUnits="userSpaceOnUse" id="cp16"><path d="m1046.19 23.53h167.81v160.47h-167.81z"/></clipPath><clipPath clipPathUnits="userSpaceOnUse" id="cp17"><path d="m1197.71 39.92c10.5 10.5 16.39 24.74 16.39 39.58v47.97c0 14.85-5.9 29.08-16.39 39.58-10.5 10.5-24.73 16.4-39.58 16.4h-111.94v-159.92h111.94c14.85 0 29.08 5.89 39.58 16.39zm-15.59 39.59c0-6.37-2.51-12.47-7.02-16.97-4.51-4.49-10.61-7.02-16.97-7.02h-79.95v95.94h79.94c6.37 0 12.47-2.52 16.97-7.02 4.5-4.51 7.03-10.6 7.03-16.97v-47.97z"/></clipPath><clipPath clipPathUnits="userSpaceOnUse" id="cp18"><path d="m1246.08 23.93h175.92v160.07h-175.92z"/></clipPath><clipPath clipPathUnits="userSpaceOnUse" id="cp19"><path d="m1420.36 123.85c2.46 9.48 1.95 19.48-1.44 28.66-3.39 9.18-9.52 17.1-17.54 22.7-8.03 5.61-17.58 8.62-27.37 8.64h-127.93v-159.92h119.94c8.78 0.02 17.37 2.43 24.87 7 7.5 4.56 13.61 11.1 17.65 18.89 4.04 7.8 5.87 16.55 5.27 25.3-0.59 8.76-3.57 17.19-8.61 24.37 7.41 6.38 12.71 14.88 15.16 24.36zm-142.29-36.36h87.95c4.24 0 8.3-1.68 11.3-4.68 3.01-2.99 4.7-7.06 4.7-11.31 0-4.24-1.7-8.3-4.7-11.3-2.99-3-7.06-4.68-11.3-4.68h-87.95zm107.2 57.93c2.89-3.31 4.48-7.56 4.48-11.96 0-4.4-1.59-8.65-4.48-11.95-2.89-3.31-6.9-5.45-11.26-6.04h-95.94v35.98h95.94c4.36-0.58 8.37-2.73 11.26-6.03z"/></clipPath></defs><style>.a{fill:#19c0ea}.b{fill:#fff}</style><g clip-path="url(#cp1)"><path class="a" d="m6.8 7.5h47.6v47.7h-47.6z"/></g><g clip-path="url(#cp2)"><path class="a" d="m6.8 79.5h119.9v47.7h-119.9z"/></g><g clip-path="url(#cp3)"><path class="a" d="m78.7 7.5h47.7v47.7h-47.7z"/></g><g clip-path="url(#cp4)"><path class="a" d="m6.8 151.5h192.1v47.6h-192.1z"/></g><g clip-path="url(#cp5)"><path class="a" d="m150.7 7.5h47.6v120h-47.6z"/></g><g clip-path="url(#cp6)"><g clip-path="url(#cp7)"><path class="b" d="m294.6 23.5h159.9v159.9h-159.9z"/></g></g><g clip-path="url(#cp8)"><g clip-path="url(#cp9)"><path class="b" d="m490.5 63.5h92.2v119.9h-92.2z"/></g></g><g clip-path="url(#cp10)"><g clip-path="url(#cp11)"><path class="b" d="m597.2 63.5h132.3v119.9h-132.3z"/></g></g><g clip-path="url(#cp12)"><g clip-path="url(#cp13)"><path class="b" d="m754.4 23.5h103.7v159.9h-103.7z"/></g></g><g clip-path="url(#cp14)"><g clip-path="url(#cp15)"><path class="b" d="m882.3 63.5h132.2v119.9h-132.2z"/></g></g><g clip-path="url(#cp16)"><g clip-path="url(#cp17)"><path class="b" d="m1046.2 23.5h167.6v159.9h-167.6z"/></g></g><g clip-path="url(#cp18)"><g clip-path="url(#cp19)"><path class="b" d="m1246.1 23.9h176.8v159.9h-176.8z"/></g></g></svg>