<svg width="181" height="16" viewBox="0 0 181 16" fill="none" xmlns="http://www.w3.org/2000/svg">
<g clip-path="url(#clip0_371_76234)">
<path d="M4 0H0V4H4V0Z" fill="#00A6D1"/>
<path d="M10 0H6V4H10V0Z" fill="#00A6D1"/>
<path d="M16 0H12V10H16V0Z" fill="#00A6D1"/>
<path d="M10 6H0V10H10V6Z" fill="#00A6D1"/>
<path d="M16 12H0V16H16V12Z" fill="#00A6D1"/>
<path d="M67.6666 1.33337H65V4.66671H62.3333V7.00004H65V11.6667C65.0244 12.4766 65.367 13.2443 65.9535 13.8033C66.54 14.3624 67.3232 14.6678 68.1333 14.6534H71V12.3334H67.6666V7.00004H71V4.66671H67.6666V1.33337Z" fill="white"/>
<path d="M42.9866 6.33326H42.6666L42.3333 4.6666H40.3333V14.6666H43V8.33326C43 7.97964 43.1405 7.6405 43.3905 7.39045C43.6406 7.14041 43.9797 6.99993 44.3333 6.99993H48V4.6666H44.6666C44.4462 4.66303 44.2272 4.70361 44.0226 4.78594C43.8181 4.86827 43.632 4.99069 43.4755 5.14599C43.319 5.30129 43.1951 5.48634 43.1111 5.69024C43.0272 5.89414 42.9848 6.11276 42.9866 6.33326V6.33326Z" fill="white"/>
<path d="M24 4.66671V11.3334C24 12.2174 24.3512 13.0653 24.9763 13.6904C25.6014 14.3155 26.4493 14.6667 27.3333 14.6667H37.3333V12H26.6667V4.00004H37.3333V1.33337H27.3333C26.4493 1.33337 25.6014 1.68457 24.9763 2.30969C24.3512 2.93481 24 3.78265 24 4.66671V4.66671Z" fill="white"/>
<path d="M96 1.33337H86.6667V14.6667H96C97.2377 14.6667 98.4247 14.175 99.2998 13.2999C100.175 12.4247 100.667 11.2377 100.667 10V6.00004C100.667 4.76236 100.175 3.57539 99.2998 2.70022C98.4247 1.82505 97.2377 1.33337 96 1.33337ZM98 6.00004V10C98 10.5305 97.7893 11.0392 97.4142 11.4142C97.0392 11.7893 96.5305 12 96 12H89.3334V4.00004H96C96.5305 4.00004 97.0392 4.21076 97.4142 4.58584C97.7893 4.96091 98 5.46961 98 6.00004Z" fill="white"/>
<path d="M57.54 4.66671H50.5467V6.83338H57.5467V8.83338H52.2133C51.4387 8.82086 50.6906 9.11527 50.1323 9.65235C49.574 10.1894 49.2508 10.9255 49.2333 11.7C49.2427 12.1039 49.3325 12.5019 49.4975 12.8707C49.6625 13.2395 49.8993 13.5717 50.1941 13.8479C50.4889 14.1241 50.8359 14.3388 51.2146 14.4794C51.5934 14.62 51.9964 14.6837 52.4 14.6667H56.24C56.5936 14.6667 56.9328 14.5262 57.1828 14.2762C57.4329 14.0261 57.5733 13.687 57.5733 13.3334H57.9067L58.24 14.6667H60.24V7.33338C60.24 6.98036 60.17 6.63087 60.0339 6.30514C59.8978 5.97941 59.6984 5.68394 59.4472 5.43588C59.196 5.18781 58.8981 4.99209 58.5707 4.86005C58.2433 4.72802 57.893 4.6623 57.54 4.66671ZM56.54 12.6667H52.7067C52.4426 12.665 52.19 12.5588 52.0039 12.3715C51.8178 12.1841 51.7133 11.9308 51.7133 11.6667V11.6667C51.7133 11.4015 51.8187 11.1471 52.0062 10.9596C52.1938 10.7721 52.4481 10.6667 52.7133 10.6667H57.5467V11.6667C57.5449 11.9325 57.4381 12.1869 57.2495 12.3742C57.0609 12.5616 56.8058 12.6667 56.54 12.6667V12.6667Z" fill="white"/>
<path d="M80.6667 4.66663H76.3333C75.4493 4.66663 74.6014 5.01782 73.9763 5.64294C73.3512 6.26807 73 7.1159 73 7.99996V11.3333C73 12.2173 73.3512 13.0652 73.9763 13.6903C74.6014 14.3154 75.4493 14.6666 76.3333 14.6666H83.3333V12.5H75.6667V10.6666H84V7.99996C84 7.1159 83.6488 6.26807 83.0237 5.64294C82.3986 5.01782 81.5507 4.66663 80.6667 4.66663ZM75.6733 8.83329V7.83329C75.6733 7.56808 75.7787 7.31372 75.9662 7.12618C76.1538 6.93864 76.4081 6.83329 76.6733 6.83329H80.6733C80.9374 6.83329 81.1907 6.93772 81.3781 7.12382C81.5654 7.30992 81.6716 7.56256 81.6733 7.82662V8.83329H75.6733Z" fill="white"/>
<path d="M116.6 7.66671C117.021 7.06794 117.269 6.36521 117.318 5.63501C117.367 4.90481 117.215 4.17513 116.878 3.52543C116.541 2.87573 116.033 2.33091 115.408 1.95028C114.783 1.56964 114.065 1.36779 113.333 1.3667H103.333V14.7H114C114.816 14.6985 115.612 14.4474 116.282 13.9803C116.951 13.5132 117.461 12.8525 117.744 12.087C118.027 11.3215 118.069 10.4876 117.865 9.69751C117.66 8.90738 117.219 8.19875 116.6 7.66671ZM106 4.00004H113.333C113.687 4.00004 114.026 4.14052 114.276 4.39056C114.526 4.64061 114.667 4.97975 114.667 5.33337C114.667 5.687 114.526 6.02614 114.276 6.27618C114.026 6.52623 113.687 6.66671 113.333 6.66671H106V4.00004ZM114 12H106V9.00004H114C114.363 9.0486 114.697 9.22745 114.938 9.50334C115.18 9.77923 115.313 10.1334 115.313 10.5C115.313 10.8667 115.18 11.2209 114.938 11.4967C114.697 11.7726 114.363 11.9515 114 12V12Z" fill="white"/>
<path d="M139 1.33337H136.333V11.6667C136.358 12.4766 136.7 13.2443 137.287 13.8033C137.873 14.3624 138.657 14.6678 139.467 14.6534H142.333V12.3334H139V1.33337Z" fill="#00A6D1"/>
<path d="M152.427 14.6666H146.233C145.896 14.6666 145.561 14.6 145.25 14.4706C144.938 14.3412 144.655 14.1516 144.416 13.9125C144.178 13.6735 143.989 13.3897 143.86 13.0776C143.732 12.7654 143.666 12.4309 143.667 12.0933V7.2333C143.667 6.55257 143.937 5.89972 144.418 5.41838C144.9 4.93703 145.553 4.66663 146.233 4.66663H152.427C153.108 4.66662 153.762 4.93684 154.244 5.41799C154.726 5.89914 154.998 6.55196 155 7.2333V12.1C154.998 12.7813 154.726 13.4341 154.244 13.9153C153.762 14.3964 153.108 14.6666 152.427 14.6666V14.6666ZM152.333 6.95996H146.333V12.3333H152.333V6.95996Z" fill="#00A6D1"/>
<path d="M164.667 4.66663V12.3333H160.667C160.401 12.3333 160.147 12.2279 159.96 12.0404C159.772 11.8529 159.667 11.5985 159.667 11.3333V4.66663H157V12C157 12.7072 157.281 13.3855 157.781 13.8856C158.281 14.3857 158.959 14.6666 159.667 14.6666H163C163.354 14.6666 163.693 14.5262 163.943 14.2761C164.193 14.0261 164.333 13.6869 164.333 13.3333H164.667L165 14.6666H167.333V4.66663H164.667Z" fill="#00A6D1"/>
<path d="M177.333 13.3333C177.333 13.6869 177.193 14.0261 176.943 14.2761C176.693 14.5262 176.354 14.6666 176 14.6666H171.567C171.229 14.6666 170.895 14.6 170.583 14.4706C170.271 14.3412 169.988 14.1516 169.749 13.9125C169.511 13.6735 169.322 13.3897 169.193 13.0776C169.065 12.7654 168.999 12.4309 169 12.0933V7.2333C169 6.55257 169.27 5.89972 169.752 5.41838C170.233 4.93703 170.886 4.66663 171.567 4.66663H177.667V0.666626H180.333V14.6666H178L177.667 13.3333H177.333ZM177.667 6.94664H172.667C172.401 6.94664 172.147 7.05199 171.96 7.23952C171.772 7.42706 171.667 7.68142 171.667 7.94664V11.3133C171.665 11.446 171.689 11.5778 171.739 11.7011C171.788 11.8243 171.861 11.9366 171.954 12.0314C172.047 12.1262 172.158 12.2017 172.28 12.2535C172.403 12.3053 172.534 12.3324 172.667 12.3333H177.667V6.94664Z" fill="#00A6D1"/>
<path d="M120.667 4.66671V11.3334C120.667 12.2174 121.018 13.0653 121.643 13.6904C122.268 14.3155 123.116 14.6667 124 14.6667H134V12H123.333V4.00004H134V1.33337H124C123.116 1.33337 122.268 1.68457 121.643 2.30969C121.018 2.93481 120.667 3.78265 120.667 4.66671Z" fill="#00A6D1"/>
</g>
<defs>
<clipPath id="clip0_371_76234">
<rect width="180.333" height="16" fill="white"/>
</clipPath>
</defs>
</svg>
